<?xml version="1.0" encoding="UTF-8" standalone="no"?>
<svg
   xmlns:dc="http://purl.org/dc/elements/1.1/"
   xmlns:cc="http://creativecommons.org/ns#"
   xmlns:rdf="http://www.w3.org/1999/02/22-rdf-syntax-ns#"
   xmlns:svg="http://www.w3.org/2000/svg"
   xmlns="http://www.w3.org/2000/svg"
   xmlns:sodipodi="http://sodipodi.sourceforge.net/DTD/sodipodi-0.dtd"
   xmlns:inkscape="http://www.inkscape.org/namespaces/inkscape"
   height="377.34167pt"
   viewBox="0 -1 467.79665 477.96612"
   width="369.31314pt"
   version="1.1"
   id="svg40"
   sodipodi:docname="agences.svg"
   inkscape:version="0.92.4 (5da689c313, 2019-01-14)"
   inkscape:export-filename="/home/tchirktema/Documents/DEV/WEB/PROJETS/SIMPLON/bedouBank/bedoubank/assets/images/facture.png"
   inkscape:export-xdpi="38.990002"
   inkscape:export-ydpi="38.990002">
  <metadata
     id="metadata46">
    <rdf:RDF>
      <cc:Work
         rdf:about="">
        <dc:format>image/svg+xml</dc:format>
        <dc:type
           rdf:resource="http://purl.org/dc/dcmitype/StillImage" />
        <dc:title></dc:title>
      </cc:Work>
    </rdf:RDF>
  </metadata>
  <defs
     id="defs44" />
  <sodipodi:namedview
     pagecolor="#ffffff"
     bordercolor="#666666"
     borderopacity="1"
     objecttolerance="10"
     gridtolerance="10"
     guidetolerance="10"
     inkscape:pageopacity="0"
     inkscape:pageshadow="2"
     inkscape:window-width="1366"
     inkscape:window-height="704"
     id="namedview42"
     showgrid="false"
     inkscape:zoom="0.7375"
     inkscape:cx="163.20282"
     inkscape:cy="224.05137"
     inkscape:window-x="0"
     inkscape:window-y="27"
     inkscape:window-maximized="1"
     inkscape:current-layer="svg40"
     inkscape:pagecheckerboard="true"
     scale-x="0.95"
     fit-margin-top="0"
     fit-margin-left="0"
     fit-margin-right="0"
     fit-margin-bottom="0" />
  <rect
     style="opacity:1;fill:#f9f9f9;fill-opacity:1;stroke:none;stroke-width:15.02362251;stroke-miterlimit:4;stroke-dasharray:none;stroke-dashoffset:0;stroke-opacity:1"
     id="rect872"
     width="467.79663"
     height="477.96613"
     x="0"
     y="-1"
     ry="0"
     inkscape:export-xdpi="38.990002"
     inkscape:export-ydpi="38.990002" />
  <g
     style="fill:#231f20"
     transform="matrix(0.62779299,0,0,0.62779299,78.436166,71.375154)"
     id="g1224"
     inkscape:export-xdpi="38"
     inkscape:export-ydpi="38">
    <path
       style="fill:#5789d6"
       inkscape:connector-curvature="0"
       d="m 488,336 c 0,13.25391 -10.74609,24 -24,24 -13.25391,0 -24,-10.74609 -24,-24 0,-13.25391 10.74609,-24 24,-24 13.25391,0 24,10.74609 24,24 z m 0,0"
       id="path1123" />
    <path
       style="fill:#eebc5a"
       inkscape:connector-curvature="0"
       d="m 392,440 c 0,13.25391 -10.74609,24 -24,24 -13.25391,0 -24,-10.74609 -24,-24 0,-13.25391 10.74609,-24 24,-24 13.25391,0 24,10.74609 24,24 z m 0,0"
       id="path1125" />
    <path
       style="fill:#5da351"
       inkscape:connector-curvature="0"
       d="m 168,352 c 0,13.25391 -10.74609,24 -24,24 -13.25391,0 -24,-10.74609 -24,-24 0,-13.25391 10.74609,-24 24,-24 13.25391,0 24,10.74609 24,24 z m 0,0"
       id="path1127" />
    <path
       style="fill:#ca5057"
       inkscape:connector-curvature="0"
       d="m 56,464 c 0,13.25391 -10.746094,24 -24,24 -13.253906,0 -24,-10.74609 -24,-24 0,-13.25391 10.746094,-24 24,-24 13.253906,0 24,10.74609 24,24 z m 0,0"
       id="path1129" />
    <path
       style="fill:#52575f"
       inkscape:connector-curvature="0"
       d="m 224,272 v 192 c 0,13.25781 10.74219,24 24,24 13.25781,0 24,-10.74219 24,-24 V 272"
       id="path1131" />
    <path
       style="fill:#666d77"
       inkscape:connector-curvature="0"
       d="M 236,484.67187 C 243.14453,480.51172 248,472.86328 248,464 V 272 h -24 v 192 c 0,8.86328 4.85547,16.51172 12,20.67187 z m 0,0"
       id="path1133" />
    <path
       style="fill:#5789d6"
       inkscape:connector-curvature="0"
       d="m 208,312 h 80 v 32 h -80 z m 0,0"
       id="path1135" />
    <path
       style="fill:#5789d6"
       inkscape:connector-curvature="0"
       d="M 384,144 C 384,219.10937 323.10937,280 248,280 172.89062,280 112,219.10937 112,144 112,68.890625 172.89062,8 248,8 323.10937,8 384,68.890625 384,144 Z m 0,0"
       id="path1137" />
    <path
       style="fill:#699ce6"
       inkscape:connector-curvature="0"
       d="m 352,144 c 0,57.4375 -46.5625,104 -104,104 -57.4375,0 -104,-46.5625 -104,-104 0,-57.4375 46.5625,-104 104,-104 57.4375,0 104,46.5625 104,104 z m 0,0"
       id="path1139" />
    <path
       style="fill:#dc6068"
       inkscape:connector-curvature="0"
       d="m 208,144 h 80 v 64 h -80 z m 0,0"
       id="path1141" />
    <path
       style="fill:#ca5057"
       inkscape:connector-curvature="0"
       d="m 192,112 h 112 v 32 H 192 Z m 0,0"
       id="path1143" />
    <path
       style="fill:#eebc5a"
       inkscape:connector-curvature="0"
       d="m 232,80 c 8.83984,0 16,7.160156 16,16 v 16 h -16 c -8.83984,0 -16,-7.16016 -16,-16 0,-8.839844 7.16016,-16 16,-16 z m 0,0"
       id="path1145" />
    <path
       style="fill:#eebc5a"
       inkscape:connector-curvature="0"
       d="m 264,80 c -8.83984,0 -16,7.160156 -16,16 v 16 h 16 c 8.83984,0 16,-7.16016 16,-16 0,-8.839844 -7.16016,-16 -16,-16 z m 0,0"
       id="path1147" />
    <path
       inkscape:connector-curvature="0"
       d="M 248,288 C 168.60156,288 104,223.39844 104,144 104,64.601562 168.60156,0 248,0 c 79.39844,0 144,64.601562 144,144 0,79.39844 -64.60156,144 -144,144 z m 0,-272 c -70.57422,0 -128,57.425781 -128,128 0,70.57422 57.42578,128 128,128 70.57422,0 128,-57.42578 128,-128 C 376,73.425781 318.57422,16 248,16 Z m 0,0"
       id="path1149" />
    <path
       inkscape:connector-curvature="0"
       d="M 248,256 C 186.23828,256 136,205.76172 136,144 136,82.238281 186.23828,32 248,32 c 61.76172,0 112,50.238281 112,112 0,61.76172 -50.23828,112 -112,112 z m 0,-208 c -52.9375,0 -96,43.0625 -96,96 0,52.9375 43.0625,96 96,96 52.9375,0 96,-43.0625 96,-96 0,-52.9375 -43.0625,-96 -96,-96 z m 0,0"
       id="path1151" />
    <path
       inkscape:connector-curvature="0"
       d="m 248,496 c -17.64844,0 -32,-14.35156 -32,-32 V 344 h 16 v 120 c 0,8.82422 7.17578,16 16,16 8.82422,0 16,-7.17578 16,-16 V 344 h 16 v 120 c 0,17.64844 -14.35156,32 -32,32 z m 0,0"
       id="path1153" />
    <path
       inkscape:connector-curvature="0"
       d="m 288,352 h -80 c -4.42578,0 -8,-3.58594 -8,-8 v -32 c 0,-4.41406 3.57422,-8 8,-8 h 80 c 4.42578,0 8,3.58594 8,8 v 32 c 0,4.41406 -3.57422,8 -8,8 z m -72,-16 h 64 v -16 h -64 z m 0,0"
       id="path1155" />
    <path
       inkscape:connector-curvature="0"
       d="m 216,280 h 16 v 32 h -16 z m 0,0"
       id="path1157" />
    <path
       inkscape:connector-curvature="0"
       d="m 264,280 h 16 v 32 h -16 z m 0,0"
       id="path1159" />
    <path
       inkscape:connector-curvature="0"
       d="M 304,152 H 192 c -4.42578,0 -8,-3.58594 -8,-8 v -32 c 0,-4.41406 3.57422,-8 8,-8 h 112 c 4.42578,0 8,3.58594 8,8 v 32 c 0,4.41406 -3.57422,8 -8,8 z M 200,136 h 96 v -16 h -96 z m 0,0"
       id="path1161" />
    <path
       inkscape:connector-curvature="0"
       d="m 288,216 h -80 c -4.42578,0 -8,-3.58594 -8,-8 v -64 c 0,-4.41406 3.57422,-8 8,-8 h 80 c 4.42578,0 8,3.58594 8,8 v 64 c 0,4.41406 -3.57422,8 -8,8 z m -72,-16 h 64 v -48 h -64 z m 0,0"
       id="path1163" />
    <path
       inkscape:connector-curvature="0"
       d="m 248,120 h -16 c -13.23047,0 -24,-10.76953 -24,-24 0,-13.230469 10.76953,-24 24,-24 13.23047,0 24,10.769531 24,24 v 16 c 0,4.41406 -3.57422,8 -8,8 z M 232,88 c -4.41406,0 -8,3.59375 -8,8 0,4.40625 3.58594,8 8,8 h 8 v -8 c 0,-4.40625 -3.58594,-8 -8,-8 z m 0,0"
       id="path1165" />
    <path
       inkscape:connector-curvature="0"
       d="m 264,120 h -16 c -4.42578,0 -8,-3.58594 -8,-8 V 96 c 0,-13.230469 10.76953,-24 24,-24 13.23047,0 24,10.769531 24,24 0,13.23047 -10.76953,24 -24,24 z m -8,-16 h 8 c 4.41406,0 8,-3.59375 8,-8 0,-4.40625 -3.58594,-8 -8,-8 -4.41406,0 -8,3.59375 -8,8 z m 0,0"
       id="path1167" />
    <path
       inkscape:connector-curvature="0"
       d="M 32,496 C 14.351562,496 0,481.64844 0,464 c 0,-17.64844 14.351562,-32 32,-32 17.648438,0 32,14.35156 32,32 0,17.64844 -14.351562,32 -32,32 z m 0,-48 c -8.824219,0 -16,7.17578 -16,16 0,8.82422 7.175781,16 16,16 8.824219,0 16,-7.17578 16,-16 0,-8.82422 -7.175781,-16 -16,-16 z m 0,0"
       id="path1169" />
    <path
       inkscape:connector-curvature="0"
       d="m 144,384 c -17.64844,0 -32,-14.35156 -32,-32 0,-17.64844 14.35156,-32 32,-32 17.64844,0 32,14.35156 32,32 0,17.64844 -14.35156,32 -32,32 z m 0,-48 c -8.82422,0 -16,7.17578 -16,16 0,8.82422 7.17578,16 16,16 8.82422,0 16,-7.17578 16,-16 0,-8.82422 -7.17578,-16 -16,-16 z m 0,0"
       id="path1171" />
    <path
       inkscape:connector-curvature="0"
       d="m 368,472 c -17.64844,0 -32,-14.35156 -32,-32 0,-17.64844 14.35156,-32 32,-32 17.64844,0 32,14.35156 32,32 0,17.64844 -14.35156,32 -32,32 z m 0,-48 c -8.82422,0 -16,7.17578 -16,16 0,8.82422 7.17578,16 16,16 8.82422,0 16,-7.17578 16,-16 0,-8.82422 -7.17578,-16 -16,-16 z m 0,0"
       id="path1173" />
    <path
       inkscape:connector-curvature="0"
       d="m 464,368 c -17.64844,0 -32,-14.35156 -32,-32 0,-17.64844 14.35156,-32 32,-32 17.64844,0 32,14.35156 32,32 0,17.64844 -14.35156,32 -32,32 z m 0,-48 c -8.82422,0 -16,7.17578 -16,16 0,8.82422 7.17578,16 16,16 8.82422,0 16,-7.17578 16,-16 0,-8.82422 -7.17578,-16 -16,-16 z m 0,0"
       id="path1175" />
    <path
       inkscape:connector-curvature="0"
       d="m 42.339844,442.33984 79.999996,-80 11.3125,11.31641 -79.99609,79.99609 z m 0,0"
       id="path1177" />
    <path
       inkscape:connector-curvature="0"
       d="m 154.33984,373.65625 11.3125,-11.31641 64,64.00391 -11.3125,11.3125 z m 0,0"
       id="path1179" />
    <path
       inkscape:connector-curvature="0"
       d="m 271.12891,448.04687 71.99609,-8 1.76562,15.90235 -71.99609,8 z m 0,0"
       id="path1181" />
    <path
       inkscape:connector-curvature="0"
       d="m 377.76562,419.01953 63.96875,-80.02344 12.4961,9.99219 -63.96875,80.02344 z m 0,0"
       id="path1183" />
  </g>
</svg>
