<svg height="480pt" viewBox="-72 0 480 480.04" width="480pt" xmlns="http://www.w3.org/2000/svg"><path d="m217.78125 8-23.441406 32-23.359375-32-23.359375 32-23.359375-32-23.363281 32-23.4375-32-23.359376 32-23.363281-32-22.71875 31.121094v432l22.71875-31.121094 23.363281 32 23.359376-32 23.4375 32 23.363281-32 23.359375 32 23.359375-32 23.359375 32 23.441406-32 23.359375 32 22.878906-31.199219v-432l-22.878906 31.199219zm0 0" fill="#ebe5dd"/><path d="m304.019531 274.320312c-11.140625-9.984374-25.128906-16.226562-40-17.847656-2.46875-.285156-4.953125-.441406-7.441406-.472656-34.777344-.265625-64.773437 24.371094-71.273437 58.539062-6.503907 34.164063 12.347656 68.09375 44.792968 80.625 32.441406 12.527344 69.207032.074219 87.355469-29.59375 18.148437-29.667968 12.496094-68.070312-13.433594-91.25zm0 0" fill="#ffeb99"/><path d="m304.019531 274.320312c-6.898437-6.09375-14.910156-10.792968-23.597656-13.832031 2.660156 1.769531 5.199219 3.71875 7.597656 5.832031 25.722657 22.898438 31.613281 60.8125 14.046875 90.433594-17.5625 29.621094-53.65625 42.640625-86.085937 31.054688 31.417969 20.964844 73.699219 14.085937 96.851562-15.757813 23.152344-29.847656 19.304688-72.507812-8.8125-97.730469zm0 0" fill="#ffe477"/><path d="m80.019531 64h112v32h-112zm0 0" fill="#d9ccbc"/><g fill="#231f20"><path d="m200.019531 320h16v16h-16zm0 0"/><path d="m296.019531 320h16v16h-16zm0 0"/><path d="m336.019531 328.617188c.324219-38.25-26.511719-71.363282-64-78.96875v-240.847657c.003907-3.460937-2.222656-6.53125-5.511719-7.609375-3.289062-1.074218-6.898437.085938-8.945312 2.878906l-16.40625 22.402344-16.914062-23.199218c-1.503907-2.058594-3.902344-3.273438-6.453126-3.273438-2.546874 0-4.941406 1.21875-6.449218 3.273438l-16.976563 23.199218-16.910156-23.199218c-1.578125-1.957032-3.953125-3.09375-6.464844-3.09375s-4.886719 1.136718-6.464843 3.09375l-16.902344 23.125-16.90625-23.117188c-1.574219-1.957031-3.949219-3.09375-6.457032-3.09375-2.511718 0-4.886718 1.136719-6.460937 3.09375l-16.914063 23.199219-16.96875-23.199219c-1.503906-2.0625-3.902343-3.28125-6.453124-3.28125-2.550782.00390625-4.945313 1.222656-6.449219 3.28125l-16.910157 23.117188-16.90625-23.117188c-1.574218-1.957031-3.949218-3.09375-6.460937-3.09375-2.507813 0-4.882813 1.136719-6.457031 3.09375l-22.722656 31.117188c-1 1.371093-1.5351568 3.023437-1.5351568 4.722656v432c-.0039062 3.464844 2.2265628 6.535156 5.5195308 7.609375 3.292969 1.074219 6.902344-.089844 8.945313-2.890625l16.253906-22.238282 16.898438 23.152344c1.503906 2.058594 3.90625 3.277344 6.460937 3.277344 2.550782 0 4.953125-1.21875 6.457032-3.277344l16.921874-23.203125 16.96875 23.203125c1.511719 2.046875 3.910157 3.253906 6.453126 3.246094 2.550781-.003906 4.945312-1.222656 6.449218-3.28125l16.914063-23.117188 16.902343 23.152344c1.574219 1.953125 3.949219 3.089844 6.460938 3.089844 2.507812 0 4.882812-1.136719 6.460938-3.089844l16.894531-23.152344 16.894531 23.152344c1.507812 2.058594 3.90625 3.277344 6.457031 3.277344s4.949219-1.214844 6.457031-3.269531l16.976563-23.203125 16.910156 23.203125c1.503907 2.054687 3.898438 3.273437 6.449219 3.277343 2.550781 0 4.949219-1.214843 6.453125-3.269531l22.882813-31.203125c1.015624-1.378906 1.5625-3.050781 1.558593-4.765625v-34.449219c37.082031-7.433593 63.824219-39.917968 64-77.734374zm-94.863281 129.839843-16.914062-23.199219c-1.503907-2.0625-3.902344-3.28125-6.453126-3.28125-2.546874 0-4.941406 1.214844-6.449218 3.269532l-16.976563 23.203125-16.910156-23.203125c-1.578125-1.953125-3.953125-3.089844-6.464844-3.089844s-4.886719 1.136719-6.464843 3.089844l-16.902344 23.152344-16.90625-23.117188c-1.574219-1.957031-3.949219-3.09375-6.457032-3.09375-2.511718 0-4.886718 1.136719-6.460937 3.09375l-16.914063 23.199219-16.96875-23.199219c-1.503906-2.0625-3.902343-3.28125-6.453124-3.28125-2.550782.003906-4.945313 1.222656-6.449219 3.28125l-16.910157 23.117188-16.90625-23.117188c-1.574218-1.957031-3.949218-3.09375-6.460937-3.09375-2.507813 0-4.882813 1.136719-6.457031 3.09375l-8.257813 11.3125v-404.867188l14.71875-20.125 16.898438 23.117188c1.503906 2.0625 3.90625 3.28125 6.460937 3.28125 2.550782 0 4.953125-1.21875 6.457032-3.28125l16.921874-23.199219 16.96875 23.199219c1.503907 2.0625 3.902344 3.28125 6.453126 3.28125 2.550781-.003906 4.945312-1.222656 6.449218-3.28125l16.914063-23.117188 16.902343 23.117188c1.574219 1.957031 3.949219 3.09375 6.460938 3.09375 2.507812 0 4.882812-1.136719 6.460938-3.09375l16.894531-23.117188 16.894531 23.117188c1.507812 2.0625 3.90625 3.28125 6.457031 3.28125s4.949219-1.214844 6.457031-3.273438l16.976563-23.199218 16.910156 23.199218c1.503907 2.058594 3.898438 3.277344 6.449219 3.28125 2.550781 0 4.949219-1.214843 6.453125-3.273437l8.441406-11.496094v214.761719c-44.183593-.175781-80.140625 35.5-80.316406 79.683594-.171875 44.183594 35.503906 80.140625 79.683594 80.316406h.632812v30.183594zm14.367188-66.457031c-35.34375-.136719-63.886719-28.902344-63.75-64.246094.136718-35.347656 28.898437-63.890625 64.246093-63.753906h.527344c15.570313.101562 30.566406 5.886719 42.167969 16.273438 19.871094 17.75 26.667968 45.953124 17.058594 70.804687-9.605469 24.851563-33.605469 41.152344-60.25 40.921875zm0 0"/><path d="m96.019531 72h80v16h-80zm0 0"/><path d="m48.019531 120h24v16h-24zm0 0"/><path d="m88.019531 120h136v16h-136zm0 0"/><path d="m48.019531 168h24v16h-24zm0 0"/><path d="m48.019531 216h24v16h-24zm0 0"/><path d="m88.019531 168h136v16h-136zm0 0"/><path d="m88.019531 216h136v16h-136zm0 0"/><path d="m48.019531 264h24v16h-24zm0 0"/><path d="m88.019531 264h80v16h-80zm0 0"/><path d="m272.019531 312h16c0-13.253906-10.746093-24-24-24v-8h-16v8c-13.253906 0-24 10.746094-24 24s10.746094 24 24 24v16c-4.417969 0-8-3.582031-8-8h-16c0 13.253906 10.746094 24 24 24v8h16v-8c13.253907 0 24-10.746094 24-24s-10.746093-24-24-24v-16c4.417969 0 8 3.582031 8 8zm0 32c0 4.417969-3.582031 8-8 8v-16c4.417969 0 8 3.582031 8 8zm-24-24c-4.417969 0-8-3.582031-8-8s3.582031-8 8-8zm0 0"/></g></svg>