<svg height="480pt" viewBox="0 -1 480 480" width="480pt" xmlns="http://www.w3.org/2000/svg"><path d="m8 232 56.320312 25.28125 91.601563-91.601562zm0 0" fill="#ebe5dd"/><path d="m27.558594 240 231.9375-103.265625-19.496094-8.734375-232 104zm0 0" fill="#d8d7da"/><path d="m201.039062 145.441406 4.472657-2 34.488281-15.441406 77.359375 34.640625 25.441406-25.359375 129.199219-129.28125h-464l154.640625 154.640625zm0 0" fill="#c0ab91"/><path d="m8 8v224l147.921875-66.320312 6.71875-3.039063zm0 0" fill="#a78966"/><path d="m353.121094 285.28125 118.878906-53.28125-45.28125-20.320312zm0 0" fill="#ebe5dd"/><path d="m317.359375 162.640625 5.441406 2.480469 37.519531 16.800781 66.398438 29.757813 45.28125 20.320312v-224l-129.199219 129.28125zm0 0" fill="#a78966"/><path d="m217.519531 138.078125-12.007812 5.363281-42.871094 19.199219-6.71875 3.039063-91.601563 91.601562-55.28125 55.277344 158.402344 158.402344 185.679688-185.679688 73.597656-73.601562-186.71875-83.679688zm0 0" fill="#ffe477"/><path d="m371.039062 233.359375-169.679687 169.679687c-18.738281-18.714843-49.097656-18.714843-67.839844 0l-56.558593-56.558593c18.714843-18.742188 18.714843-49.101563 0-67.839844l10.878906-10.878906 129.679687-129.683594 22.480469-10.078125 77.359375 34.640625 5.441406 2.480469 37.519531 16.800781c-7.007812 17.75-2.792968 37.964844 10.71875 51.4375zm0 0" fill="#64c37d"/><g fill="#231f20"><path d="m479.433594 234.800781c.078125-.214843.191406-.425781.253906-.65625.203125-.699219.304688-1.417969.3125-2.144531v-224c0-4.417969-3.582031-8-8-8h-464c-4.417969 0-8 3.582031-8 8v224c.0078125.726562.109375 1.445312.3125 2.144531.074219.226563.164062.445313.261719.664063.226562.714844.59375 1.375 1.074219 1.953125.257812.351562.542968.683593.855468.992187.207032.199219.433594.375.664063.558594.15625.140625.316406.273438.488281.398438.179688.097656.363281.183593.550781.257812.183594.101562.328125.238281.511719.328125l45.738281 20.527344-47.074219 47.078125c-3.121093 3.125-3.121093 8.191406 0 11.3125l158.402344 158.402344c3.121094 3.121093 8.1875 3.121093 11.3125 0l184.628906-184.617188 117.546876-52.679688c.167968-.082031.285156-.199218.445312-.289062.214844-.085938.421875-.1875.625-.304688.175781-.109374.3125-.269531.480469-.390624.167969-.121094.457031-.367188.671875-.566407.3125-.308593.597656-.640625.855468-.992187.175782-.210938.335938-.433594.480469-.664063.238281-.421875.4375-.859375.601563-1.3125zm-119.304688-1.839843-159.199218 159.199218c-19.890626-14.816406-47.152344-14.816406-67.042969 0l-46.015625-46.082031c14.816406-19.890625 14.816406-47.148437 0-67.039063l134.265625-134.238281 17.863281-8 110.574219 49.597657c-3.90625 16.167968-.40625 33.238281 9.554687 46.5625zm-44.527344-79.871094-72.328124-32.394532c-2.082032-.933593-4.464844-.933593-6.546876 0l-72.300781 32.417969-137.113281-137.113281h425.375zm-166.800781 7.023437-132.800781 59.535157v-192.335938zm182.398438 0 17.234375-17.183593 115.566406-115.617188v192.328125l-100.40625-45.015625zm-303.648438 71.886719 91.953125-41.222656-56.945312 56.949218zm139.890625 227.648438-147.089844-147.089844 140.167969-140.160156 20.609375-9.199219-109.824218 109.785156c-3.125 3.125-3.125 8.1875 0 11.3125 15.59375 15.617187 15.59375 40.910156 0 56.527344-3.125 3.125-3.125 8.1875 0 11.3125l56.558593 56.558593c3.125 3.125 8.1875 3.125 11.3125 0 15.617188-15.59375 40.910157-15.59375 56.527344 0 3.125 3.125 8.1875 3.125 11.3125 0l169.679687-169.679687c3.125-3.125 3.125-8.1875 0-11.3125-9.0625-9.082031-13.195312-21.980469-11.09375-34.640625l47.199219 21.175781zm261.023438-238.402344 4.070312 1.824218 19.914063 8.929688-62.945313 28.207031zm0 0"/><path d="m139.152344 306.914062 11.3125-11.3125 11.3125 11.3125-11.3125 11.3125zm0 0"/><path d="m139.148438 329.535156 11.3125-11.3125 11.316406 11.3125-11.316406 11.3125zm0 0"/><path d="m161.769531 329.539062 11.316407-11.316406 11.3125 11.316406-11.3125 11.3125zm0 0"/><path d="m161.773438 306.914062 11.3125-11.3125 11.3125 11.3125-11.3125 11.316407zm0 0"/><path d="m263.597656 182.460938 11.316406-11.3125 11.3125 11.3125-11.3125 11.3125zm0 0"/><path d="m263.597656 205.089844 11.3125-11.3125 11.3125 11.3125-11.3125 11.316406zm0 0"/><path d="m286.226562 205.09375 11.3125-11.3125 11.316407 11.3125-11.316407 11.3125zm0 0"/><path d="m286.230469 182.464844 11.3125-11.316406 11.3125 11.316406-11.3125 11.3125zm0 0"/><path d="m222.054688 276.6875-11.3125 11.3125c9.375 9.375 24.574218 9.375 33.945312 0l5.65625 5.65625 11.3125-11.3125-5.65625-5.65625c9.375-9.371094 9.375-24.570312 0-33.945312-9.375-9.371094-24.570312-9.371094-33.945312 0l-11.3125-11.308594c3.125-3.125 8.191406-3.125 11.3125 0l11.320312-11.3125c-9.371094-9.375-24.570312-9.375-33.941406 0l-5.65625-5.65625-11.3125 11.3125 5.65625 5.65625c-9.246094 9.390625-9.183594 24.480468.132812 33.800781s24.40625 9.382813 33.800782.140625l11.320312 11.3125c-1.5 1.503906-3.535156 2.347656-5.660156 2.347656-2.121094 0-4.160156-.84375-5.660156-2.347656zm-22.621094-22.632812c-3.125-3.121094-3.125-8.1875 0-11.3125l11.308594 11.3125c-3.121094 3.125-8.1875 3.125-11.308594 0zm33.941406 0c3.125-3.121094 8.191406-3.121094 11.316406.003906 3.125 3.128906 3.121094 8.195312-.003906 11.316406zm0 0"/></g></svg>