<?xml version="1.0" encoding="UTF-8" standalone="no"?>
<svg
   xmlns:dc="http://purl.org/dc/elements/1.1/"
   xmlns:cc="http://creativecommons.org/ns#"
   xmlns:rdf="http://www.w3.org/1999/02/22-rdf-syntax-ns#"
   xmlns:svg="http://www.w3.org/2000/svg"
   xmlns="http://www.w3.org/2000/svg"
   xmlns:sodipodi="http://sodipodi.sourceforge.net/DTD/sodipodi-0.dtd"
   xmlns:inkscape="http://www.inkscape.org/namespaces/inkscape"
   height="377.34167pt"
   viewBox="0 -1 467.79665 477.96612"
   width="369.31314pt"
   version="1.1"
   id="svg40"
   sodipodi:docname="facture.svg"
   inkscape:version="0.92.4 (5da689c313, 2019-01-14)"
   inkscape:export-filename="/home/tchirktema/Documents/DEV/WEB/PROJETS/SIMPLON/bedouBank/bedoubank/assets/images/facture.png"
   inkscape:export-xdpi="38.990002"
   inkscape:export-ydpi="38.990002">
  <metadata
     id="metadata46">
    <rdf:RDF>
      <cc:Work
         rdf:about="">
        <dc:format>image/svg+xml</dc:format>
        <dc:type
           rdf:resource="http://purl.org/dc/dcmitype/StillImage" />
        <dc:title></dc:title>
      </cc:Work>
    </rdf:RDF>
  </metadata>
  <defs
     id="defs44" />
  <sodipodi:namedview
     pagecolor="#ffffff"
     bordercolor="#666666"
     borderopacity="1"
     objecttolerance="10"
     gridtolerance="10"
     guidetolerance="10"
     inkscape:pageopacity="0"
     inkscape:pageshadow="2"
     inkscape:window-width="1366"
     inkscape:window-height="704"
     id="namedview42"
     showgrid="false"
     inkscape:zoom="0.52149125"
     inkscape:cx="205.58618"
     inkscape:cy="75.165188"
     inkscape:window-x="0"
     inkscape:window-y="27"
     inkscape:window-maximized="1"
     inkscape:current-layer="g1037"
     inkscape:pagecheckerboard="true"
     scale-x="0.95"
     fit-margin-top="0"
     fit-margin-left="0"
     fit-margin-right="0"
     fit-margin-bottom="0" />
  <rect
     style="opacity:1;fill:#f9f9f9;fill-opacity:1;stroke:none;stroke-width:15.02362251;stroke-miterlimit:4;stroke-dasharray:none;stroke-dashoffset:0;stroke-opacity:1"
     id="rect872"
     width="467.79663"
     height="477.96613"
     x="0"
     y="-1"
     ry="0"
     inkscape:export-xdpi="38.990002"
     inkscape:export-ydpi="38.990002" />
  <path
     style="fill:#ebe5dd;stroke-width:0.78945374"
     inkscape:connector-curvature="0"
     d="M 285.21277,66.085089 266.70686,91.347608 248.26572,66.085089 229.82457,91.347608 211.38343,66.085089 192.9392,91.347608 174.43638,66.085089 155.99523,91.347608 137.551,66.085089 119.6156,90.653752 V 431.69776 l 17.9354,-24.56866 18.44423,25.26251 18.44115,-25.26251 18.50282,25.26251 18.44423,-25.26251 18.44114,25.26251 18.44115,-25.26251 18.44114,25.26251 18.50591,-25.26251 18.44114,25.26251 18.06184,-24.63034 V 66.717268 l -18.06183,24.63034 z m 0,0"
     id="path1003" />
  <path
     style="fill:#ffeb99;stroke-width:0.78945374"
     inkscape:connector-curvature="0"
     d="m 353.2939,276.33265 c -8.795,-7.8822 -19.83811,-12.81012 -31.57815,-14.0899 -1.94896,-0.22512 -3.91026,-0.34847 -5.87465,-0.37314 -27.4551,-0.20969 -51.13562,19.23985 -56.26707,46.21388 -5.13454,26.97095 9.7479,53.75686 35.36197,63.64971 25.61099,9.88976 54.63575,0.0586 68.9631,-23.3629 14.32735,-23.42149 9.86509,-53.73836 -10.6052,-72.03765 z m 0,0"
     id="path1005" />
  <path
     style="fill:#ffe477;stroke-width:0.78945374"
     inkscape:connector-curvature="0"
     d="m 353.2939,276.33265 c -5.446,-4.81074 -11.77088,-8.52055 -18.62926,-10.91975 2.10007,1.39696 4.10454,2.93578 5.998,4.60412 20.30685,18.07726 24.95722,48.00865 11.08936,71.39314 -13.86478,23.38448 -42.35913,33.6628 -67.96086,24.51623 24.80303,16.55078 58.18212,11.1202 76.45982,-12.44006 18.2777,-23.56334 15.24016,-57.24156 -6.95706,-77.15368 z m 0,0"
     id="path1007" />
  <path
     style="fill:#d9ccbc;stroke-width:0.78945374"
     inkscape:connector-curvature="0"
     d="m 176.45627,110.2945 h 88.41881 v 25.26252 h -88.41881 z m 0,0"
     id="path1009" />
  <g
     style="fill:#231f20"
     id="g1037"
     transform="matrix(0.78945372,0,0,0.78945372,113.28455,59.769459)">
    <path
       inkscape:connector-curvature="0"
       d="m 200.01953,320 h 16 v 16 h -16 z m 0,0"
       id="path1011" />
    <path
       inkscape:connector-curvature="0"
       d="m 296.01953,320 h 16 v 16 h -16 z m 0,0"
       id="path1013" />
    <path
       inkscape:connector-curvature="0"
       d="m 336.01953,328.61719 c 0.32422,-38.25 -26.51172,-71.36328 -64,-78.96875 V 8.800781 c 0.004,-3.460937 -2.22266,-6.53125 -5.51172,-7.609375 -3.28906,-1.074218 -6.89844,0.085938 -8.94531,2.878906 L 241.15625,26.472656 224.24219,3.273438 C 222.73828,1.214844 220.33984,0 217.78906,0 c -2.54687,0 -4.9414,1.21875 -6.44922,3.273438 L 194.36328,26.472656 177.45312,3.273438 C 175.875,1.316406 173.5,0.179688 170.98828,0.179688 c -2.51172,0 -4.88672,1.136718 -6.46484,3.09375 l -16.90235,23.125 L 130.71484,3.28125 c -1.57422,-1.957031 -3.94922,-3.09375 -6.45703,-3.09375 -2.51172,0 -4.88672,1.136719 -6.46094,3.09375 L 100.88281,26.480469 83.914062,3.28125 C 82.410156,1.21875 80.011719,0 77.460938,0 74.910156,0.00390625 72.515625,1.222656 71.011719,3.28125 L 54.101562,26.398438 37.195312,3.28125 C 35.621094,1.324219 33.246094,0.1875 30.734375,0.1875 c -2.507813,0 -4.882813,1.136719 -6.457031,3.09375 L 1.554688,34.398438 c -1,1.371093 -1.5351568,3.023437 -1.5351568,4.722656 V 471.12109 c -0.0039062,3.46485 2.2265628,6.53516 5.5195308,7.60938 3.292969,1.07422 6.902344,-0.0899 8.945313,-2.89063 l 16.253906,-22.23828 16.898438,23.15235 c 1.503906,2.05859 3.90625,3.27734 6.460937,3.27734 2.550782,0 4.953125,-1.21875 6.457032,-3.27734 l 16.921874,-23.20313 16.96875,23.20313 c 1.511719,2.04687 3.910157,3.2539 6.453128,3.24609 2.55078,-0.004 4.94531,-1.22266 6.44922,-3.28125 l 16.91406,-23.11719 16.90234,23.15235 c 1.57422,1.95312 3.94922,3.08984 6.46094,3.08984 2.50781,0 4.88281,-1.13672 6.46094,-3.08984 l 16.89453,-23.15235 16.89453,23.15235 c 1.50781,2.05859 3.90625,3.27734 6.45703,3.27734 2.55078,0 4.94922,-1.21484 6.45703,-3.26953 l 16.97656,-23.20313 16.91016,23.20313 c 1.50391,2.05469 3.89844,3.27344 6.44922,3.27734 2.55078,0 4.94922,-1.21484 6.45312,-3.26953 l 22.88282,-31.20312 c 1.01562,-1.37891 1.5625,-3.05079 1.55859,-4.76563 v -34.44922 c 37.08203,-7.43359 63.82422,-39.91797 64,-77.73437 z m -94.86328,129.83984 -16.91406,-23.19922 c -1.50391,-2.0625 -3.90235,-3.28125 -6.45313,-3.28125 -2.54687,0 -4.9414,1.21485 -6.44922,3.26953 l -16.97656,23.20313 -16.91016,-23.20313 c -1.57812,-1.95312 -3.95312,-3.08984 -6.46484,-3.08984 -2.51172,0 -4.88672,1.13672 -6.46484,3.08984 l -16.90235,23.15235 -16.90625,-23.11719 c -1.57422,-1.95703 -3.94922,-3.09375 -6.45703,-3.09375 -2.51172,0 -4.88672,1.13672 -6.46094,3.09375 L 100.88281,458.48047 83.914062,435.28125 C 82.410156,433.21875 80.011719,432 77.460938,432 c -2.550782,0.004 -4.945313,1.22266 -6.449219,3.28125 l -16.910157,23.11719 -16.90625,-23.11719 c -1.574218,-1.95703 -3.949218,-3.09375 -6.460937,-3.09375 -2.507813,0 -4.882813,1.13672 -6.457031,3.09375 l -8.257813,11.3125 V 41.726562 l 14.71875,-20.125 16.898438,23.117188 C 49.140625,46.78125 51.542969,48 54.097656,48 c 2.550782,0 4.953125,-1.21875 6.457032,-3.28125 L 77.476562,21.519531 94.445312,44.71875 C 95.949219,46.78125 98.347656,48 100.89844,48 c 2.55078,-0.0039 4.94531,-1.222656 6.44922,-3.28125 l 16.91406,-23.117188 16.90234,23.117188 c 1.57422,1.957031 3.94922,3.09375 6.46094,3.09375 2.50781,0 4.88281,-1.136719 6.46094,-3.09375 L 170.98047,21.601562 187.875,44.71875 c 1.50781,2.0625 3.90625,3.28125 6.45703,3.28125 2.55078,0 4.94922,-1.214844 6.45703,-3.273438 l 16.97656,-23.199218 16.91016,23.199218 c 1.50391,2.058594 3.89844,3.277344 6.44922,3.28125 2.55078,0 4.94922,-1.214843 6.45312,-3.273437 l 8.44141,-11.496094 V 248 c -44.18359,-0.17578 -80.14062,35.5 -80.31641,79.68359 -0.17187,44.1836 35.50391,80.14063 79.6836,80.31641 h 0.63281 v 30.18359 z M 255.52344,392 c -35.34375,-0.13672 -63.88672,-28.90234 -63.75,-64.24609 0.13672,-35.34766 28.89843,-63.89063 64.24609,-63.75391 h 0.52734 c 15.57032,0.10156 30.56641,5.88672 42.16797,16.27344 19.8711,17.75 26.66797,45.95312 17.0586,70.80468 -9.60547,24.85157 -33.60547,41.15235 -60.25,40.92188 z m 0,0"
       id="path1015" />
    <path
       inkscape:connector-curvature="0"
       d="M 96.019531,72 H 176.01953 V 88 H 96.019531 Z m 0,0"
       id="path1017" />
    <path
       inkscape:connector-curvature="0"
       d="m 48.019531,120 h 24 v 16 h -24 z m 0,0"
       id="path1019" />
    <path
       inkscape:connector-curvature="0"
       d="M 88.019531,120 H 224.01953 v 16 H 88.019531 Z m 0,0"
       id="path1021" />
    <path
       inkscape:connector-curvature="0"
       d="m 48.019531,168 h 24 v 16 h -24 z m 0,0"
       id="path1023" />
    <path
       inkscape:connector-curvature="0"
       d="m 48.019531,216 h 24 v 16 h -24 z m 0,0"
       id="path1025" />
    <path
       inkscape:connector-curvature="0"
       d="M 88.019531,168 H 224.01953 v 16 H 88.019531 Z m 0,0"
       id="path1027" />
    <path
       inkscape:connector-curvature="0"
       d="M 88.019531,216 H 224.01953 v 16 H 88.019531 Z m 0,0"
       id="path1029" />
    <path
       inkscape:connector-curvature="0"
       d="m 48.019531,264 h 24 v 16 h -24 z m 0,0"
       id="path1031" />
    <path
       inkscape:connector-curvature="0"
       d="m 88.019531,264 h 79.999999 v 16 H 88.019531 Z m 0,0"
       id="path1033" />
  </g>
</svg>
