<svg height="496pt" viewBox="0 0 496 496" width="496pt" xmlns="http://www.w3.org/2000/svg"><path d="m488 336c0 13.253906-10.746094 24-24 24s-24-10.746094-24-24 10.746094-24 24-24 24 10.746094 24 24zm0 0" fill="#5789d6"/><path d="m392 440c0 13.253906-10.746094 24-24 24s-24-10.746094-24-24 10.746094-24 24-24 24 10.746094 24 24zm0 0" fill="#eebc5a"/><path d="m168 352c0 13.253906-10.746094 24-24 24s-24-10.746094-24-24 10.746094-24 24-24 24 10.746094 24 24zm0 0" fill="#5da351"/><path d="m56 464c0 13.253906-10.746094 24-24 24s-24-10.746094-24-24 10.746094-24 24-24 24 10.746094 24 24zm0 0" fill="#ca5057"/><path d="m224 272v192c0 13.257812 10.742188 24 24 24s24-10.742188 24-24v-192" fill="#52575f"/><path d="m236 484.671875c7.144531-4.160156 12-11.808594 12-20.671875v-192h-24v192c0 8.863281 4.855469 16.511719 12 20.671875zm0 0" fill="#666d77"/><path d="m208 312h80v32h-80zm0 0" fill="#5789d6"/><path d="m384 144c0 75.109375-60.890625 136-136 136s-136-60.890625-136-136 60.890625-136 136-136 136 60.890625 136 136zm0 0" fill="#5789d6"/><path d="m352 144c0 57.4375-46.5625 104-104 104s-104-46.5625-104-104 46.5625-104 104-104 104 46.5625 104 104zm0 0" fill="#699ce6"/><path d="m208 144h80v64h-80zm0 0" fill="#dc6068"/><path d="m192 112h112v32h-112zm0 0" fill="#ca5057"/><path d="m232 80c8.839844 0 16 7.160156 16 16v16h-16c-8.839844 0-16-7.160156-16-16s7.160156-16 16-16zm0 0" fill="#eebc5a"/><path d="m264 80c-8.839844 0-16 7.160156-16 16v16h16c8.839844 0 16-7.160156 16-16s-7.160156-16-16-16zm0 0" fill="#eebc5a"/><path d="m248 288c-79.398438 0-144-64.601562-144-144s64.601562-144 144-144 144 64.601562 144 144-64.601562 144-144 144zm0-272c-70.574219 0-128 57.425781-128 128s57.425781 128 128 128 128-57.425781 128-128-57.425781-128-128-128zm0 0"/><path d="m248 256c-61.761719 0-112-50.238281-112-112s50.238281-112 112-112 112 50.238281 112 112-50.238281 112-112 112zm0-208c-52.9375 0-96 43.0625-96 96s43.0625 96 96 96 96-43.0625 96-96-43.0625-96-96-96zm0 0"/><path d="m248 496c-17.648438 0-32-14.351562-32-32v-120h16v120c0 8.824219 7.175781 16 16 16s16-7.175781 16-16v-120h16v120c0 17.648438-14.351562 32-32 32zm0 0"/><path d="m288 352h-80c-4.425781 0-8-3.585938-8-8v-32c0-4.414062 3.574219-8 8-8h80c4.425781 0 8 3.585938 8 8v32c0 4.414062-3.574219 8-8 8zm-72-16h64v-16h-64zm0 0"/><path d="m216 280h16v32h-16zm0 0"/><path d="m264 280h16v32h-16zm0 0"/><path d="m304 152h-112c-4.425781 0-8-3.585938-8-8v-32c0-4.414062 3.574219-8 8-8h112c4.425781 0 8 3.585938 8 8v32c0 4.414062-3.574219 8-8 8zm-104-16h96v-16h-96zm0 0"/><path d="m288 216h-80c-4.425781 0-8-3.585938-8-8v-64c0-4.414062 3.574219-8 8-8h80c4.425781 0 8 3.585938 8 8v64c0 4.414062-3.574219 8-8 8zm-72-16h64v-48h-64zm0 0"/><path d="m248 120h-16c-13.230469 0-24-10.769531-24-24s10.769531-24 24-24 24 10.769531 24 24v16c0 4.414062-3.574219 8-8 8zm-16-32c-4.414062 0-8 3.59375-8 8s3.585938 8 8 8h8v-8c0-4.40625-3.585938-8-8-8zm0 0"/><path d="m264 120h-16c-4.425781 0-8-3.585938-8-8v-16c0-13.230469 10.769531-24 24-24s24 10.769531 24 24-10.769531 24-24 24zm-8-16h8c4.414062 0 8-3.59375 8-8s-3.585938-8-8-8-8 3.59375-8 8zm0 0"/><path d="m32 496c-17.648438 0-32-14.351562-32-32s14.351562-32 32-32 32 14.351562 32 32-14.351562 32-32 32zm0-48c-8.824219 0-16 7.175781-16 16s7.175781 16 16 16 16-7.175781 16-16-7.175781-16-16-16zm0 0"/><path d="m144 384c-17.648438 0-32-14.351562-32-32s14.351562-32 32-32 32 14.351562 32 32-14.351562 32-32 32zm0-48c-8.824219 0-16 7.175781-16 16s7.175781 16 16 16 16-7.175781 16-16-7.175781-16-16-16zm0 0"/><path d="m368 472c-17.648438 0-32-14.351562-32-32s14.351562-32 32-32 32 14.351562 32 32-14.351562 32-32 32zm0-48c-8.824219 0-16 7.175781-16 16s7.175781 16 16 16 16-7.175781 16-16-7.175781-16-16-16zm0 0"/><path d="m464 368c-17.648438 0-32-14.351562-32-32s14.351562-32 32-32 32 14.351562 32 32-14.351562 32-32 32zm0-48c-8.824219 0-16 7.175781-16 16s7.175781 16 16 16 16-7.175781 16-16-7.175781-16-16-16zm0 0"/><path d="m42.339844 442.339844 80-80 11.3125 11.316406-79.996094 79.996094zm0 0"/><path d="m154.339844 373.65625 11.3125-11.316406 64 64.003906-11.3125 11.3125zm0 0"/><path d="m271.128906 448.046875 71.996094-8 1.765625 15.902344-71.996094 8zm0 0"/><path d="m377.765625 419.019531 63.96875-80.023437 12.496094 9.992187-63.96875 80.023438zm0 0"/></svg>