<svg height="496pt" viewBox="0 0 496 496" width="496pt" xmlns="http://www.w3.org/2000/svg"><path d="m56 296h432v192h-432zm0 0" fill="#5da351"/><path d="m432 456h-344v-104c13.257812 0 24-10.742188 24-24h320c0 13.257812 10.742188 24 24 24v80c-13.257812 0-24 10.742188-24 24zm0 0" fill="#74c865"/><path d="m8 456h128v32h-128zm0 0" fill="#eebc5a"/><path d="m24 424h128v32h-128zm0 0" fill="#f8cf6a"/><path d="m8 392h128v32h-128zm0 0" fill="#eebc5a"/><path d="m24 360h128v32h-128zm0 0" fill="#f8cf6a"/><path d="m416 392c0 8.835938-7.164062 16-16 16s-16-7.164062-16-16 7.164062-16 16-16 16 7.164062 16 16zm0 0" fill="#5da351"/><path d="m344 392c0 39.765625-32.234375 72-72 72s-72-32.234375-72-72 32.234375-72 72-72 72 32.234375 72 72zm0 0" fill="#eebc5a"/><path d="m320 392c0 26.507812-21.492188 48-48 48s-48-21.492188-48-48 21.492188-48 48-48 48 21.492188 48 48zm0 0" fill="#f8cf6a"/><path d="m288 136h-80v-40c0-22.089844 17.910156-40 40-40s40 17.910156 40 40zm0 0" fill="#5789d6"/><path d="m240 56.808594c-18.257812 3.703125-32 19.839844-32 39.191406v40h64v-40c0-19.351562-13.742188-35.488281-32-39.191406zm0 0" fill="#699ce6"/><path d="m272 32c0 13.253906-10.746094 24-24 24s-24-10.746094-24-24 10.746094-24 24-24 24 10.746094 24 24zm0 0" fill="#f8cfc1"/><path d="m256 32c0-12.441406-7.164062-22.527344-16-22.527344s-16 10.085938-16 22.527344 7.164062 22.527344 16 22.527344 16-10.085938 16-22.527344zm0 0" fill="#fadfd1"/><path d="m168 232h-80v-40c0-22.089844 17.910156-40 40-40s40 17.910156 40 40zm0 0" fill="#5789d6"/><path d="m120 152.808594c-18.257812 3.703125-32 19.839844-32 39.191406v40h64v-40c0-19.351562-13.742188-35.488281-32-39.191406zm0 0" fill="#699ce6"/><path d="m152 128c0 13.253906-10.746094 24-24 24s-24-10.746094-24-24 10.746094-24 24-24 24 10.746094 24 24zm0 0" fill="#f8cfc1"/><path d="m136 128c0-12.441406-7.164062-22.527344-16-22.527344s-16 10.085938-16 22.527344 7.164062 22.527344 16 22.527344 16-10.085938 16-22.527344zm0 0" fill="#fadfd1"/><path d="m408 232h-80v-40c0-22.089844 17.910156-40 40-40s40 17.910156 40 40zm0 0" fill="#5789d6"/><path d="m360 152.808594c-18.257812 3.703125-32 19.839844-32 39.191406v40h64v-40c0-19.351562-13.742188-35.488281-32-39.191406zm0 0" fill="#699ce6"/><path d="m392 128c0 13.253906-10.746094 24-24 24s-24-10.746094-24-24 10.746094-24 24-24 24 10.746094 24 24zm0 0" fill="#f8cfc1"/><path d="m376 128c0-12.441406-7.164062-22.527344-16-22.527344s-16 10.085938-16 22.527344 7.164062 22.527344 16 22.527344 16-10.085938 16-22.527344zm0 0" fill="#fadfd1"/><path d="m136 496h-128c-4.425781 0-8-3.585938-8-8v-32c0-4.414062 3.574219-8 8-8h128c4.425781 0 8 3.585938 8 8v32c0 4.414062-3.574219 8-8 8zm-120-16h112v-16h-112zm0 0"/><path d="m32 456h16v32h-16zm0 0"/><path d="m64 456h16v32h-16zm0 0"/><path d="m96 456h16v32h-16zm0 0"/><path d="m152 464h-128c-4.425781 0-8-3.585938-8-8v-32c0-4.414062 3.574219-8 8-8h128c4.425781 0 8 3.585938 8 8v32c0 4.414062-3.574219 8-8 8zm-120-16h112v-16h-112zm0 0"/><path d="m48 424h16v32h-16zm0 0"/><path d="m80 424h16v32h-16zm0 0"/><path d="m112 424h16v32h-16zm0 0"/><path d="m136 432h-128c-4.425781 0-8-3.585938-8-8v-32c0-4.414062 3.574219-8 8-8h128c4.425781 0 8 3.585938 8 8v32c0 4.414062-3.574219 8-8 8zm-120-16h112v-16h-112zm0 0"/><path d="m32 392h16v32h-16zm0 0"/><path d="m64 392h16v32h-16zm0 0"/><path d="m96 392h16v32h-16zm0 0"/><path d="m152 400h-128c-4.425781 0-8-3.585938-8-8v-32c0-4.414062 3.574219-8 8-8h128c4.425781 0 8 3.585938 8 8v32c0 4.414062-3.574219 8-8 8zm-120-16h112v-16h-112zm0 0"/><path d="m48 360h16v32h-16zm0 0"/><path d="m80 360h16v32h-16zm0 0"/><path d="m112 360h16v32h-16zm0 0"/><path d="m488 496h-352v-16h344v-176h-416v56h-16v-64c0-4.414062 3.574219-8 8-8h432c4.425781 0 8 3.585938 8 8v192c0 4.414062-3.574219 8-8 8zm0 0"/><path d="m280 432h-40v-16h40c4.414062 0 8-3.59375 8-8s-3.585938-8-8-8h-16c-13.230469 0-24-10.769531-24-24s10.769531-24 24-24h40v16h-40c-4.414062 0-8 3.59375-8 8s3.585938 8 8 8h16c13.230469 0 24 10.769531 24 24s-10.769531 24-24 24zm0 0"/><path d="m264 336h16v24h-16zm0 0"/><path d="m264 424h16v24h-16zm0 0"/><path d="m272 472c-44.113281 0-80-35.886719-80-80s35.886719-80 80-80 80 35.886719 80 80-35.886719 80-80 80zm0-144c-35.289062 0-64 28.710938-64 64s28.710938 64 64 64 64-28.710938 64-64-28.710938-64-64-64zm0 0"/><path d="m400 416c-13.230469 0-24-10.769531-24-24s10.769531-24 24-24 24 10.769531 24 24-10.769531 24-24 24zm0-32c-4.414062 0-8 3.59375-8 8s3.585938 8 8 8 8-3.59375 8-8-3.585938-8-8-8zm0 0"/><path d="m432 464h-128v-16h121.015625c2.894531-11.230469 11.761719-20.089844 22.984375-22.992188v-66.023437c-11.222656-2.90625-20.089844-11.761719-22.984375-22.992187h-121.015625v-16h128c4.425781 0 8 3.582031 8 8 0 8.824218 7.175781 16 16 16 4.425781 0 8 3.582031 8 8v80c0 4.414062-3.574219 8-8 8-8.824219 0-16 7.175781-16 16 0 4.421874-3.574219 8.007812-8 8.007812zm0 0"/><path d="m96 360h-16v-8c0-4.414062 3.574219-8 8-8 8.824219 0 16-7.175781 16-16 0-4.414062 3.574219-8 8-8h128v16h-121.015625c-2.894531 11.230469-11.761719 20.089844-22.984375 22.992188zm0 0"/><path d="m152 448h88v16h-88zm0 0"/><path d="m248 64c-17.648438 0-32-14.351562-32-32s14.351562-32 32-32 32 14.351562 32 32-14.351562 32-32 32zm0-48c-8.824219 0-16 7.175781-16 16s7.175781 16 16 16 16-7.175781 16-16-7.175781-16-16-16zm0 0"/><path d="m288 144h-80c-4.425781 0-8-3.585938-8-8v-40c0-26.472656 21.527344-48 48-48s48 21.527344 48 48v40c0 4.414062-3.574219 8-8 8zm-72-16h64v-32c0-17.648438-14.351562-32-32-32s-32 14.351562-32 32zm0 0"/><path d="m128 160c-17.648438 0-32-14.351562-32-32s14.351562-32 32-32 32 14.351562 32 32-14.351562 32-32 32zm0-48c-8.824219 0-16 7.175781-16 16s7.175781 16 16 16 16-7.175781 16-16-7.175781-16-16-16zm0 0"/><path d="m168 240h-80c-4.425781 0-8-3.585938-8-8v-40c0-26.472656 21.527344-48 48-48s48 21.527344 48 48v40c0 4.414062-3.574219 8-8 8zm-72-16h64v-32c0-17.648438-14.351562-32-32-32s-32 14.351562-32 32zm0 0"/><path d="m368 160c-17.648438 0-32-14.351562-32-32s14.351562-32 32-32 32 14.351562 32 32-14.351562 32-32 32zm0-48c-8.824219 0-16 7.175781-16 16s7.175781 16 16 16 16-7.175781 16-16-7.175781-16-16-16zm0 0"/><path d="m408 240h-80c-4.425781 0-8-3.585938-8-8v-40c0-26.472656 21.527344-48 48-48s48 21.527344 48 48v40c0 4.414062-3.574219 8-8 8zm-72-16h64v-32c0-17.648438-14.351562-32-32-32s-32 14.351562-32 32zm0 0"/><path d="m248 216c-13.230469 0-24-10.769531-24-24s10.769531-24 24-24 24 10.769531 24 24-10.769531 24-24 24zm0-32c-4.414062 0-8 3.59375-8 8s3.585938 8 8 8 8-3.59375 8-8-3.585938-8-8-8zm0 0"/><path d="m240 136h16v40h-16zm0 0"/><path d="m264 184h64v16h-64zm0 0"/><path d="m168 184h64v16h-64zm0 0"/><path d="m240 208h16v88h-16zm0 0"/></svg>