<?xml version="1.0" encoding="UTF-8" standalone="no"?>
<svg
   xmlns:dc="http://purl.org/dc/elements/1.1/"
   xmlns:cc="http://creativecommons.org/ns#"
   xmlns:rdf="http://www.w3.org/1999/02/22-rdf-syntax-ns#"
   xmlns:svg="http://www.w3.org/2000/svg"
   xmlns="http://www.w3.org/2000/svg"
   xmlns:sodipodi="http://sodipodi.sourceforge.net/DTD/sodipodi-0.dtd"
   xmlns:inkscape="http://www.inkscape.org/namespaces/inkscape"
   height="377.34167pt"
   viewBox="0 -1 467.79665 477.96612"
   width="369.31314pt"
   version="1.1"
   id="svg40"
   sodipodi:docname="solde.svg"
   inkscape:version="0.92.4 (5da689c313, 2019-01-14)">
  <metadata
     id="metadata46">
    <rdf:RDF>
      <cc:Work
         rdf:about="">
        <dc:format>image/svg+xml</dc:format>
        <dc:type
           rdf:resource="http://purl.org/dc/dcmitype/StillImage" />
        <dc:title></dc:title>
      </cc:Work>
    </rdf:RDF>
  </metadata>
  <defs
     id="defs44" />
  <sodipodi:namedview
     pagecolor="#ffffff"
     bordercolor="#666666"
     borderopacity="1"
     objecttolerance="10"
     gridtolerance="10"
     guidetolerance="10"
     inkscape:pageopacity="0"
     inkscape:pageshadow="2"
     inkscape:window-width="1366"
     inkscape:window-height="704"
     id="namedview42"
     showgrid="false"
     inkscape:zoom="0.52149125"
     inkscape:cx="-219.12241"
     inkscape:cy="-162.33857"
     inkscape:window-x="0"
     inkscape:window-y="27"
     inkscape:window-maximized="1"
     inkscape:current-layer="svg40"
     inkscape:pagecheckerboard="true"
     scale-x="0.95"
     fit-margin-top="0"
     fit-margin-left="0"
     fit-margin-right="0"
     fit-margin-bottom="0" />
  <rect
     style="opacity:1;fill:#f9f9f9;fill-opacity:1;stroke:none;stroke-width:15.02362251;stroke-miterlimit:4;stroke-dasharray:none;stroke-dashoffset:0;stroke-opacity:1"
     id="rect872"
     width="467.79663"
     height="477.96613"
     x="0"
     y="-1"
     ry="0"
     inkscape:export-xdpi="38.990002"
     inkscape:export-ydpi="38.990002" />
  <g
     id="g893"
     transform="matrix(0.6465118,0,0,0.6465118,74.071936,68.501563)"
     inkscape:export-xdpi="38.990002"
     inkscape:export-ydpi="38.990002">
    <path
       id="path2"
       d="m 8,232 56.320312,25.28125 91.601558,-91.60156 z m 0,0"
       inkscape:connector-curvature="0"
       style="fill:#ebe5dd" />
    <path
       id="path4"
       d="M 27.558594,240 259.49609,136.73437 240,128 8,232 Z m 0,0"
       inkscape:connector-curvature="0"
       style="fill:#d8d7da" />
    <path
       id="path6"
       d="m 201.03906,145.44141 4.47266,-2 L 240,128 317.35937,162.64062 342.80078,137.28125 472,8 H 8 l 154.64062,154.64062 z m 0,0"
       inkscape:connector-curvature="0"
       style="fill:#c0ab91" />
    <path
       id="path8"
       d="m 8,8 v 224 l 147.92187,-66.32031 6.71875,-3.03907 z m 0,0"
       inkscape:connector-curvature="0"
       style="fill:#a78966" />
    <path
       id="path10"
       d="M 353.12109,285.28125 472,232 426.71875,211.67969 Z m 0,0"
       inkscape:connector-curvature="0"
       style="fill:#ebe5dd" />
    <path
       id="path12"
       d="m 317.35937,162.64062 5.44141,2.48047 37.51953,16.80078 66.39844,29.75782 L 472,232 V 8 L 342.80078,137.28125 Z m 0,0"
       inkscape:connector-curvature="0"
       style="fill:#a78966" />
    <path
       id="path14"
       d="m 217.51953,138.07812 -12.00781,5.36329 -42.8711,19.19921 -6.71875,3.03907 L 64.320312,257.28125 9.039062,312.55859 167.44141,470.96094 353.12109,285.28125 426.71875,211.67969 240,128 Z m 0,0"
       inkscape:connector-curvature="0"
       style="fill:#ffe477" />
    <path
       id="path16"
       d="M 371.03906,233.35937 201.35937,403.03906 c -18.73828,-18.71484 -49.09765,-18.71484 -67.83984,0 L 76.960938,346.48047 c 18.714843,-18.74219 18.714843,-49.10156 0,-67.83985 L 87.839844,267.76172 217.51953,138.07812 240,128 l 77.35937,34.64062 5.44141,2.48047 37.51953,16.80078 c -7.00781,17.75 -2.79297,37.96485 10.71875,51.4375 z m 0,0"
       inkscape:connector-curvature="0"
       style="fill:#64c37d" />
    <g
       id="g38"
       style="fill:#231f20">
      <path
         id="path18"
         d="m 479.43359,234.80078 c 0.0781,-0.21484 0.19141,-0.42578 0.25391,-0.65625 C 479.89062,233.44531 479.99219,232.72656 480,232 V 8 c 0,-4.417969 -3.58203,-8 -8,-8 H 8 C 3.582031,0 0,3.582031 0,8 v 224 c 0.0078125,0.72656 0.109375,1.44531 0.3125,2.14453 0.074219,0.22656 0.164062,0.44531 0.261719,0.66406 0.226562,0.71485 0.59375,1.375 1.074219,1.95313 0.257812,0.35156 0.542968,0.68359 0.855468,0.99219 0.207032,0.19921 0.433594,0.375 0.664063,0.55859 0.15625,0.14062 0.316406,0.27344 0.488281,0.39844 0.179688,0.0977 0.363281,0.18359 0.550781,0.25781 0.183594,0.10156 0.328125,0.23828 0.511719,0.32812 l 45.738281,20.52735 -47.074219,47.07812 c -3.121093,3.125 -3.121093,8.19141 0,11.3125 L 161.78516,476.61719 c 3.12109,3.12109 8.1875,3.12109 11.3125,0 L 357.72656,292 475.27344,239.32031 c 0.16797,-0.082 0.28515,-0.19922 0.44531,-0.28906 0.21484,-0.0859 0.42187,-0.1875 0.625,-0.30469 0.17578,-0.10937 0.3125,-0.26953 0.48047,-0.39062 0.16797,-0.1211 0.45703,-0.36719 0.67187,-0.56641 0.3125,-0.30859 0.59766,-0.64062 0.85547,-0.99219 0.17578,-0.21093 0.33594,-0.43359 0.48047,-0.66406 0.23828,-0.42187 0.4375,-0.85937 0.60156,-1.3125 z M 360.12891,232.96094 200.92969,392.16016 c -19.89063,-14.81641 -47.15235,-14.81641 -67.04297,0 L 87.871094,346.07812 c 14.816406,-19.89062 14.816406,-47.14843 0,-67.03906 l 134.265626,-134.23828 17.86328,-8 110.57422,49.59766 c -3.90625,16.16797 -0.40625,33.23828 9.55469,46.5625 z m -44.52735,-79.8711 -72.32812,-32.39453 c -2.08203,-0.93359 -4.46485,-0.93359 -6.54688,0 L 164.42578,153.11328 27.3125,16 h 425.375 z M 148.80078,160.11328 16,219.64844 V 27.3125 Z m 182.39844,0 17.23437,-17.18359 L 464,27.3125 V 219.64062 L 363.59375,174.625 Z M 27.550781,232 119.50391,190.77734 62.558594,247.72656 Z M 167.44141,459.64844 20.351562,312.55859 160.51953,172.39844 181.12891,163.19922 71.304688,272.98437 c -3.125,3.125 -3.125,8.1875 0,11.3125 15.59375,15.61719 15.59375,40.91016 0,56.52735 -3.125,3.125 -3.125,8.1875 0,11.3125 l 56.558592,56.55859 c 3.125,3.125 8.1875,3.125 11.3125,0 15.61719,-15.59375 40.91016,-15.59375 56.52735,0 3.125,3.125 8.1875,3.125 11.3125,0 L 376.69531,239.01562 c 3.125,-3.125 3.125,-8.1875 0,-11.3125 -9.0625,-9.08203 -13.19531,-21.98046 -11.09375,-34.64062 l 47.19922,21.17578 z m 261.02343,-238.40235 4.07032,1.82422 19.91406,8.92969 -62.94531,28.20703 z m 0,0"
         inkscape:connector-curvature="0" />
      <path
         id="path20"
         d="m 139.15234,306.91406 11.3125,-11.3125 11.3125,11.3125 -11.3125,11.3125 z m 0,0"
         inkscape:connector-curvature="0" />
      <path
         id="path22"
         d="m 139.14844,329.53516 11.3125,-11.3125 11.3164,11.3125 -11.3164,11.3125 z m 0,0"
         inkscape:connector-curvature="0" />
      <path
         id="path24"
         d="m 161.76953,329.53906 11.31641,-11.3164 11.3125,11.3164 -11.3125,11.3125 z m 0,0"
         inkscape:connector-curvature="0" />
      <path
         id="path26"
         d="m 161.77344,306.91406 11.3125,-11.3125 11.3125,11.3125 -11.3125,11.31641 z m 0,0"
         inkscape:connector-curvature="0" />
      <path
         id="path28"
         d="m 263.59766,182.46094 11.3164,-11.3125 11.3125,11.3125 -11.3125,11.3125 z m 0,0"
         inkscape:connector-curvature="0" />
      <path
         id="path30"
         d="m 263.59766,205.08984 11.3125,-11.3125 11.3125,11.3125 -11.3125,11.31641 z m 0,0"
         inkscape:connector-curvature="0" />
      <path
         id="path32"
         d="m 286.22656,205.09375 11.3125,-11.3125 11.31641,11.3125 -11.31641,11.3125 z m 0,0"
         inkscape:connector-curvature="0" />
      <path
         id="path34"
         d="m 286.23047,182.46484 11.3125,-11.3164 11.3125,11.3164 -11.3125,11.3125 z m 0,0"
         inkscape:connector-curvature="0" />
      <path
         id="path36"
         d="M 222.05469,276.6875 210.74219,288 c 9.375,9.375 24.57422,9.375 33.94531,0 l 5.65625,5.65625 11.3125,-11.3125 L 256,276.6875 c 9.375,-9.37109 9.375,-24.57031 0,-33.94531 -9.375,-9.3711 -24.57031,-9.3711 -33.94531,0 l -11.3125,-11.3086 c 3.125,-3.125 8.1914,-3.125 11.3125,0 l 11.32031,-11.3125 c -9.37109,-9.375 -24.57031,-9.375 -33.94141,0 l -5.65625,-5.65625 -11.3125,11.3125 5.65625,5.65625 c -9.24609,9.39063 -9.18359,24.48047 0.13282,33.80078 9.3164,9.32032 24.40625,9.38282 33.80078,0.14063 l 11.32031,11.3125 c -1.5,1.50391 -3.53516,2.34766 -5.66016,2.34766 -2.12109,0 -4.16015,-0.84375 -5.66015,-2.34766 z m -22.6211,-22.63281 c -3.125,-3.1211 -3.125,-8.1875 0,-11.3125 l 11.3086,11.3125 c -3.1211,3.125 -8.1875,3.125 -11.3086,0 z m 33.94141,0 c 3.125,-3.1211 8.19141,-3.1211 11.31641,0.004 3.125,3.12891 3.12109,8.19532 -0.004,11.31641 z m 0,0"
         inkscape:connector-curvature="0" />
    </g>
  </g>
</svg>
