<?xml version="1.0" encoding="UTF-8" standalone="no"?>
<svg
   xmlns:dc="http://purl.org/dc/elements/1.1/"
   xmlns:cc="http://creativecommons.org/ns#"
   xmlns:rdf="http://www.w3.org/1999/02/22-rdf-syntax-ns#"
   xmlns:svg="http://www.w3.org/2000/svg"
   xmlns="http://www.w3.org/2000/svg"
   xmlns:sodipodi="http://sodipodi.sourceforge.net/DTD/sodipodi-0.dtd"
   xmlns:inkscape="http://www.inkscape.org/namespaces/inkscape"
   height="377.34167pt"
   viewBox="0 -1 467.79665 477.96612"
   width="369.31314pt"
   version="1.1"
   id="svg40"
   sodipodi:docname="transfert.svg"
   inkscape:version="0.92.4 (5da689c313, 2019-01-14)"
   inkscape:export-filename="/home/tchirktema/Documents/DEV/WEB/PROJETS/SIMPLON/bedouBank/bedoubank/assets/images/transfert.png"
   inkscape:export-xdpi="38.990002"
   inkscape:export-ydpi="38.990002">
  <metadata
     id="metadata46">
    <rdf:RDF>
      <cc:Work
         rdf:about="">
        <dc:format>image/svg+xml</dc:format>
        <dc:type
           rdf:resource="http://purl.org/dc/dcmitype/StillImage" />
        <dc:title></dc:title>
      </cc:Work>
    </rdf:RDF>
  </metadata>
  <defs
     id="defs44" />
  <sodipodi:namedview
     pagecolor="#ffffff"
     bordercolor="#666666"
     borderopacity="1"
     objecttolerance="10"
     gridtolerance="10"
     guidetolerance="10"
     inkscape:pageopacity="0"
     inkscape:pageshadow="2"
     inkscape:window-width="1366"
     inkscape:window-height="704"
     id="namedview42"
     showgrid="false"
     inkscape:zoom="0.52149125"
     inkscape:cx="164.39313"
     inkscape:cy="67.770757"
     inkscape:window-x="0"
     inkscape:window-y="27"
     inkscape:window-maximized="1"
     inkscape:current-layer="svg40"
     inkscape:pagecheckerboard="true"
     scale-x="0.95"
     fit-margin-top="0"
     fit-margin-left="0"
     fit-margin-right="0"
     fit-margin-bottom="0" />
  <rect
     style="opacity:1;fill:#f9f9f9;fill-opacity:1;stroke:none;stroke-width:15.02362251;stroke-miterlimit:4;stroke-dasharray:none;stroke-dashoffset:0;stroke-opacity:1"
     id="rect872"
     width="467.79663"
     height="477.96613"
     x="0"
     y="-1"
     ry="0"
     inkscape:export-xdpi="38.990002"
     inkscape:export-ydpi="38.990002" />
  <g
     id="g982"
     transform="matrix(0.63613903,0,0,0.63613903,79.448441,84.5175)">
    <path
       id="path914"
       d="M 264,48 V 408 H 8 V 48 h 80 l 16,24 h 64 l 16,-24 z m 0,0"
       inkscape:connector-curvature="0"
       style="fill:#bdfdff" />
    <path
       id="path916"
       d="M 32,96 H 240 V 384 H 32 Z m 0,0"
       inkscape:connector-curvature="0"
       style="fill:#ddfffb" />
    <path
       id="path918"
       d="m 264,352 v 8 H 432 V 336 H 264 Z m 0,0"
       inkscape:connector-curvature="0"
       style="fill:#006468" />
    <path
       id="path920"
       d="M 264,112 H 456 V 336 H 264 Z m 0,0"
       inkscape:connector-curvature="0"
       style="fill:#009698" />
    <path
       id="path922"
       d="m 264,408 v 48 c -0.0273,8.82422 -7.17578,15.97266 -16,16 H 24 C 15.175781,471.97266 8.027344,464.82422 8,456 v -48 z m 0,0"
       inkscape:connector-curvature="0"
       style="fill:#acabb1" />
    <path
       id="path924"
       d="m 432,184 v 80 c -26.50781,0 -48,21.49219 -48,48 H 264 V 136 h 120 c -0.0273,8.8125 2.41406,17.45703 7.03906,24.96094 C 399.71875,175.28125 415.25391,184.02344 432,184 Z m 0,0"
       inkscape:connector-curvature="0"
       style="fill:#ffeb99" />
    <path
       id="path926"
       d="M 248,8 H 24 C 15.175781,8.027344 8.027344,15.175781 8,24 v 24 h 80 l 16,24 h 64 l 16,-24 h 80 V 24 C 263.97266,15.175781 256.82422,8.027344 248,8 Z m 0,0"
       inkscape:connector-curvature="0"
       style="fill:#acabb1" />
    <path
       id="path928"
       d="m 224,224 c 0,48.60156 -39.39844,88 -88,88 -48.601562,0 -88,-39.39844 -88,-88 0,-48.60156 39.398438,-88 88,-88 48.60156,0 88,39.39844 88,88 z m 0,0"
       inkscape:connector-curvature="0"
       style="fill:#ff5023" />
    <g
       id="g952"
       style="fill:#231f20">
      <path
         id="path930"
         d="M 456,104 H 272 V 24 C 272,10.746094 261.25391,0 248,0 H 24 C 10.746094,0 0,10.746094 0,24 v 432 c 0,13.25391 10.746094,24 24,24 h 224 c 13.25391,0 24,-10.74609 24,-24 v -88 h 160 c 4.41797,0 8,-3.58203 8,-8 v -16 h 16 c 4.41797,0 8,-3.58203 8,-8 V 112 c 0,-4.41797 -3.58203,-8 -8,-8 z m -184,40 h 104.57422 c 3.59765,24.55078 22.875,43.83594 47.42578,47.44141 v 65.125 C 399.44531,260.15625 380.15625,279.44531 376.56641,304 H 272 Z M 24,16 h 224 c 4.41797,0 8,3.582031 8,8 v 16 h -72 c -2.67578,0 -5.17188,1.335938 -6.65625,3.558594 L 163.71875,64 h -55.4375 L 94.679688,43.558594 C 93.191406,41.328125 90.683594,39.992188 88,40 H 16 V 24 c 0,-4.417969 3.582031,-8 8,-8 z M 248,464 H 24 c -4.417969,0 -8,-3.58203 -8,-8 v -40 h 240 v 40 c 0,4.41797 -3.58203,8 -8,8 z m 8,-64 H 16 V 56 H 83.71875 L 97.320312,76.441406 C 98.808594,78.671875 101.31641,80.007812 104,80 h 64 c 2.67578,0 5.17187,-1.335938 6.65625,-3.558594 L 188.28125,56 H 256 Z M 424,352 H 272 v -8 h 152 z m 24,-24 H 272 v -8 h 112 c 4.41797,0 8,-3.58203 8,-8 0.0273,-22.08203 17.91797,-39.97266 40,-40 4.41797,0 8,-3.58203 8,-8 v -80 c 0,-4.41797 -3.58203,-8 -8,-8 -13.97266,0.0664 -26.94531,-7.23047 -34.15234,-19.19922 C 393.98438,150.55469 391.95703,143.34375 392,136 c 0,-4.41797 -3.58203,-8 -8,-8 H 272 v -8 h 176 z m 0,0"
         inkscape:connector-curvature="0" />
      <path
         id="path932"
         d="m 152,440 c 0,8.83594 -7.16406,16 -16,16 -8.83594,0 -16,-7.16406 -16,-16 0,-8.83594 7.16406,-16 16,-16 8.83594,0 16,7.16406 16,16 z m 0,0"
         inkscape:connector-curvature="0" />
      <path
         id="path934"
         d="m 112,32 h 48 v 16 h -48 z m 0,0"
         inkscape:connector-curvature="0" />
      <path
         id="path936"
         d="m 40,104 h 8 V 88 H 32 c -4.417969,0 -8,3.582031 -8,8 v 16 h 16 z m 0,0"
         inkscape:connector-curvature="0" />
      <path
         id="path938"
         d="m 240,88 h -16 v 16 h 8 v 8 h 16 V 96 c 0,-4.417969 -3.58203,-8 -8,-8 z m 0,0"
         inkscape:connector-curvature="0" />
      <path
         id="path940"
         d="M 40,368 H 24 v 16 c 0,4.41797 3.582031,8 8,8 h 16 v -16 h -8 z m 0,0"
         inkscape:connector-curvature="0" />
      <path
         id="path942"
         d="m 232,376 h -8 v 16 h 16 c 4.41797,0 8,-3.58203 8,-8 v -16 h -16 z m 0,0"
         inkscape:connector-curvature="0" />
      <path
         id="path944"
         d="m 136,128 c -53.019531,0 -96,42.98047 -96,96 0,53.01953 42.980469,96 96,96 53.01953,0 96,-42.98047 96,-96 -0.0586,-52.99609 -43.00391,-95.94141 -96,-96 z m 0,176 c -44.183594,0 -80,-35.81641 -80,-80 0,-44.18359 35.816406,-80 80,-80 44.18359,0 80,35.81641 80,80 -0.0469,44.16406 -35.83594,79.95312 -80,80 z m 0,0"
         inkscape:connector-curvature="0" />
      <path
         id="path946"
         d="m 117.65625,189.65625 -11.3125,-11.3125 -24,24 c -2.285156,2.28906 -2.972656,5.73047 -1.734375,8.71875 C 81.847656,214.05078 84.765625,216 88,216 h 96 v -16 h -76.6875 z m 0,0"
         inkscape:connector-curvature="0" />
      <path
         id="path948"
         d="M 176,232 H 80 v 16 h 76.6875 l -10.34375,10.34375 11.3125,11.3125 24,-24 c 2.28516,-2.28906 2.97266,-5.73047 1.73437,-8.71875 C 182.15234,233.94922 179.23437,232 176,232 Z m 0,0"
         inkscape:connector-curvature="0" />
      <path
         id="path950"
         d="m 336,208 h 16 c 0,-13.25391 -10.74609,-24 -24,-24 v -8 h -16 v 8 c -13.25391,0 -24,10.74609 -24,24 0,13.25391 10.74609,24 24,24 v 16 c -4.41797,0 -8,-3.58203 -8,-8 h -16 c 0,13.25391 10.74609,24 24,24 v 8 h 16 v -8 c 13.25391,0 24,-10.74609 24,-24 0,-13.25391 -10.74609,-24 -24,-24 v -16 c 4.41797,0 8,3.58203 8,8 z m 0,32 c 0,4.41797 -3.58203,8 -8,8 v -16 c 4.41797,0 8,3.58203 8,8 z m -24,-24 c -4.41797,0 -8,-3.58203 -8,-8 0,-4.41797 3.58203,-8 8,-8 z m 0,0"
         inkscape:connector-curvature="0" />
    </g>
  </g>
</svg>
